<svg version="1.2" xmlns="http://www.w3.org/2000/svg" viewBox="0 0 1500 1500" width="1500" height="1500">
	<title>logo-white-svg</title>
	<style>
		.s0 { fill: #ffffff } 
		.s1 { fill: #000000 } 
	</style>
	<g id="Layer">
		<g id="Layer">
			<g id="tight-bounds">
				<g id="Layer">
					<g id="Layer">
						<g id="Layer">
							<g id="Layer">
								<g id="Layer">
									<g id="textblocktransform">
										<g id="textblock">
											<g id="Layer">
												<g id="Layer">
													<g id="Layer">
														<g id="Layer">
															<path id="text-0" fill-rule="evenodd" class="s0" d="m353.7 992.6h-16.6v-84.1h-70.5v84.1h-16.6v-184.1h16.6v84.3h70.5v-84.3h16.6zm122.2 0h-5.3l-8.7-13q-5.5 7-13.5 11.3-8.1 4.3-17.7 4.3h-4q-8 0-15.1-3-7-3-12.3-8.3-5.3-5.2-8.3-12.3-3-7.1-3-15v-1.3q0-8 3-15 3-7.1 8.3-12.3 5.3-5.3 12.3-8.3 7.1-3 15.1-3h33.4v-20.3q0-4.7-1.8-8.9-1.9-4.2-4.9-7.3-3.1-3-7.3-4.8-4.1-1.9-8.9-1.9h-9.3q-4.7 0-8.9 1.9-4.2 1.8-7.2 4.8-3.1 3.1-4.9 7.3-1.8 4.2-1.8 8.9v4.7l-15.8-2.6v-1.2q0-8 3-15 3-7.1 8.3-12.3 5.3-5.3 12.3-8.3 7.1-3.1 15-3.1h9.3q8 0 15 3.1 7.1 3 12.3 8.3 5.3 5.2 8.4 12.3 3 7 3 15zm-15.8-35.2v-28.5h-33.4q-4.8 0-9 1.8-4.1 1.8-7.3 5-3 3.1-4.8 7.3-1.8 4.2-1.8 8.9v5.5q0 4.7 1.8 9 1.8 4.1 4.8 7.2 3.2 3.1 7.3 4.8 4.2 1.9 9 1.9h10.5q4.8 0 8.9-1.9 4.2-1.7 7.3-4.8 3-3.1 4.9-7.2 1.8-4.3 1.8-9zm135.2-0.9q0 8-3 15.1-3 7-8.2 12.3-5.4 5.2-12.4 8.2-7.1 3.1-15 3.1h-10.6q-7.9 0-15-3.1-7.1-3-12.4-8.2-5.2-5.3-8.2-12.3-3.1-7.1-3.1-15.1v-148h15.9v63.7q5.3-6.4 12.9-10 7.6-3.6 16.5-3.6h4q7.9 0 15 3 7 3 12.4 8.3 5.2 5.2 8.2 12.3 3 7.1 3 15zm-15.8 0.9v-61.1q0-4.7-1.8-8.9-1.8-4.2-4.9-7.3-3-3-7.2-4.8-4.2-1.8-8.9-1.8h-10.6q-4.7 0-8.9 1.8-4.2 1.8-7.2 4.8-3.1 3.1-4.9 7.3-1.8 4.2-1.8 8.9v61.1q0 4.8 1.8 9 1.8 4.1 4.9 7.2 3 3.1 7.2 4.8 4.2 1.9 8.9 1.9h10.6q4.7 0 8.9-1.9 4.2-1.7 7.2-4.8 3.1-3.1 4.9-7.2 1.8-4.2 1.8-9zm69.8-127.8h-18.4v-21.1h18.4zm-1.3 163.1h-15.8v-131.5h15.8zm99.2 0h-14.4q-7.2 0-13.6-2.6-6.3-2.8-11-7.5-4.7-4.7-7.5-11-2.7-6.3-2.7-13.5v-81.8h-23.7v-15h23.7v-31.6l15.8-2.5v34.1h33.4v15h-33.4v82.5q0 4 1.4 7.4 1.5 3.5 4.1 6 2.6 2.6 6 4 3.5 1.5 7.5 1.5h14.4zm137.9-45.2q0 9.4-3.5 17.6-3.5 8.2-9.7 14.4-6.2 6.2-14.5 9.7-8.2 3.5-17.6 3.5h-58.4v-184h58.4q9.4 0 17.6 3.5 8.3 3.5 14.5 9.7 6.2 6.2 9.7 14.4 3.5 8.3 3.5 17.7v1.8q0 6.5-1.7 12.5-1.7 6-4.9 11.1-3.3 5.1-7.7 9.3-4.3 4.2-9.7 7 5.4 2.8 9.7 6.9 4.4 4.3 7.7 9.5 3.2 5.1 4.9 11.1 1.7 6 1.7 12.5zm-16.5 0v-14.5q0-6.1-2.3-11.5-2.3-5.3-6.4-9.3-4-4-9.4-6.3-5.3-2.3-11.5-2.3h-41v73.3h41q6.2 0 11.5-2.3 5.4-2.3 9.4-6.3 4.1-4 6.4-9.3 2.3-5.3 2.3-11.5zm0-89.2v-4.4q0-6.1-2.3-11.5-2.3-5.3-6.4-9.3-4-4.1-9.4-6.4-5.3-2.3-11.5-2.3h-41v63.4h41q6.2 0 11.5-2.3 5.4-2.3 9.4-6.3 4.1-4.1 6.4-9.4 2.3-5.3 2.3-11.5zm130.8 98.3q0 7.9-3.1 15-3 7.1-8.3 12.3-5.2 5.3-12.3 8.3-7.1 3-15 3h-10.5q-8 0-15.1-3-7.1-3-12.3-8.3-5.3-5.2-8.3-12.3-3-7.1-3-15v-59.3q0-7.9 3-15 3-7.1 8.3-12.3 5.2-5.3 12.3-8.3 7.1-3 15.1-3h10.5q7.9 0 15 3 7.1 3 12.3 8.3 5.3 5.2 8.3 12.3 3.1 7.1 3.1 15zm-15.9 0.9v-61.1q0-4.7-1.8-8.9-1.8-4.2-4.9-7.3-3-3-7.2-4.8-4.2-1.8-8.9-1.8h-10.5q-4.8 0-9 1.8-4.2 1.8-7.3 4.8-3.1 3.1-4.9 7.3-1.7 4.2-1.7 8.9v61.1q0 4.7 1.7 8.9 1.8 4.2 4.9 7.3 3.1 3 7.3 4.8 4.2 1.9 9 1.9h10.5q4.7 0 8.9-1.9 4.2-1.8 7.2-4.8 3.1-3.1 4.9-7.3 1.8-4.2 1.8-8.9zm135.3-0.9q0 7.9-3 15-3 7.1-8.3 12.3-5.3 5.3-12.3 8.3-7.1 3.1-15.1 3.1h-10.5q-8 0-15-3.1-7.1-3-12.4-8.3-5.2-5.2-8.3-12.3-3-7.1-3-15v-59.3q0-7.9 3-15 3.1-7.1 8.3-12.3 5.3-5.3 12.4-8.3 7-3 15-3h10.5q8 0 15.1 3 7 3 12.3 8.3 5.3 5.2 8.3 12.3 3 7.1 3 15zm-15.8 0.9v-61.1q0-4.7-1.8-8.9-1.8-4.2-4.9-7.3-3.1-3-7.2-4.8-4.2-1.8-9-1.8h-10.5q-4.8 0-8.9 1.8-4.2 1.8-7.3 4.8-3.1 3.1-4.9 7.3-1.8 4.2-1.8 8.9v61.1q0 4.7 1.8 8.9 1.8 4.2 4.9 7.3 3.1 3 7.3 4.8 4.1 1.9 8.9 1.9h10.5q4.8 0 9-1.9 4.1-1.8 7.2-4.8 3.1-3.1 4.9-7.3 1.8-4.2 1.8-8.9zm145.8 35.2h-20.5l-53.8-65.7 53.8-65.7h20.5l-55 65.7zm-77.3 0h-15.8v-184.1h15.8z"/>
														</g>
													</g>
												</g>
											</g>
										</g>
									</g>
								</g>
							</g>
							<g id="Layer">
								<g id="Layer">
									<g id="Layer">
										<g id="Layer">
										</g>
									</g>
									<g id="icon-0">
										<g id="Layer">
											<g id="Layer">
												<path id="Layer" class="s0" d="m697.3 764.5c-43.2 0-78.3-35-78.3-78.2v-104.2c0-43.1 35.1-78.1 78.3-78.1h104.2c43.2 0 78.3 35 78.3 78.1v104.2c0 43.2-35.1 78.2-78.3 78.2z"/>
											</g>
											<g id="Layer">
												<g id="Layer">
													<g id="Layer">
														<g id="cg-0">
															<path id="Layer" fill-rule="evenodd" class="s1" d="m827.6 565.9v117.2c-59.3 0-78.2 19.5-78.2 19.5 0 0-18.9-19.5-78.2-19.5v-117.2c58.6 0 78.2 19.5 78.2 19.5 0 0 19.5-19.5 78.2-19.5zm-136.9 98.2c24.9 2.1 40.1 7.8 48.9 12.5v-78.7c-8.8-4.7-24-10.4-48.9-12.5zm117.4-78.7c-24.9 2.1-40.2 7.8-48.9 12.5v78.7c8.7-4.7 24-10.4 48.9-12.5z"/>
														</g>
													</g>
												</g>
											</g>
										</g>
									</g>
								</g>
							</g>
							<g id="Layer">
							</g>
						</g>
					</g>
				</g>
			</g>
		</g>
	</g>
</svg>