<svg xmlns="http://www.w3.org/2000/svg" version="1.1" xmlns:xlink="http://www.w3.org/1999/xlink" xmlns:svgjs="http://svgjs.dev/svgjs" width="1500" height="738" viewBox="0 0 1500 738"><g transform="matrix(1,0,0,1,-0.9090909090909918,-0.6226352832161979)"><svg viewBox="0 0 396 195" data-background-color="#ffffff" preserveAspectRatio="xMidYMid meet" height="738" width="1500" xmlns="http://www.w3.org/2000/svg" xmlns:xlink="http://www.w3.org/1999/xlink"><g id="tight-bounds" transform="matrix(1,0,0,1,0.2400000000000091,0.1645174528823361)"><svg viewBox="0 0 395.52 194.67096509423533" height="194.67096509423533" width="395.52"><g><svg viewBox="0 0 395.52 194.67096509423533" height="194.67096509423533" width="395.52"><g transform="matrix(1,0,0,1,0,120.70490978876911)"><svg viewBox="0 0 395.52 73.96605530546623" height="73.96605530546623" width="395.52"><g id="textblocktransform"><svg viewBox="0 0 395.52 73.96605530546623" height="73.96605530546623" width="395.52" id="textblock"><g><svg viewBox="0 0 395.52 73.96605530546623" height="73.96605530546623" width="395.52"><g transform="matrix(1,0,0,1,0,0)"><svg width="395.52" viewBox="4 -35.01 189.8 35.5" height="73.96605530546623" data-palette-color="#000000"><path d="M23.71 0L20.56 0 20.56-15.99 7.15-15.99 7.15 0 4 0 4-35.01 7.15-35.01 7.15-18.99 20.56-18.99 20.56-35.01 23.71-35.01 23.71 0ZM46.92 0L45.92 0 44.26-2.49Q43.23-1.15 41.7-0.33 40.16 0.49 38.33 0.49L38.33 0.49 37.57 0.49Q36.06 0.49 34.71-0.09 33.37-0.66 32.37-1.66 31.37-2.66 30.8-4 30.22-5.35 30.22-6.86L30.22-6.86 30.22-7.1Q30.22-8.62 30.8-9.96 31.37-11.3 32.37-12.3 33.37-13.31 34.71-13.88 36.06-14.45 37.57-14.45L37.57-14.45 43.92-14.45 43.92-18.31Q43.92-19.21 43.58-20.01 43.23-20.8 42.65-21.39 42.06-21.97 41.27-22.31 40.48-22.66 39.57-22.66L39.57-22.66 37.81-22.66Q36.91-22.66 36.12-22.31 35.32-21.97 34.74-21.39 34.15-20.8 33.81-20.01 33.47-19.21 33.47-18.31L33.47-18.31 33.47-17.41 30.47-17.9 30.47-18.14Q30.47-19.65 31.04-21 31.61-22.34 32.61-23.34 33.62-24.34 34.96-24.91 36.3-25.49 37.81-25.49L37.81-25.49 39.57-25.49Q41.09-25.49 42.43-24.91 43.77-24.34 44.77-23.34 45.77-22.34 46.35-21 46.92-19.65 46.92-18.14L46.92-18.14 46.92 0ZM43.92-6.69L43.92-12.11 37.57-12.11Q36.67-12.11 35.87-11.77 35.08-11.43 34.49-10.83 33.91-10.23 33.57-9.44 33.23-8.64 33.23-7.74L33.23-7.74 33.23-6.69Q33.23-5.79 33.57-4.99 33.91-4.2 34.49-3.61 35.08-3.03 35.87-2.69 36.67-2.34 37.57-2.34L37.57-2.34 39.57-2.34Q40.48-2.34 41.27-2.69 42.06-3.03 42.65-3.61 43.23-4.2 43.58-4.99 43.92-5.79 43.92-6.69L43.92-6.69ZM69.62-6.86L69.62-6.86Q69.62-5.35 69.05-4 68.48-2.66 67.48-1.66 66.47-0.66 65.13-0.09 63.79 0.49 62.28 0.49L62.28 0.49 60.27 0.49Q58.76 0.49 57.42-0.09 56.07-0.66 55.07-1.66 54.07-2.66 53.5-4 52.92-5.35 52.92-6.86L52.92-6.86 52.92-35.01 55.93-35.01 55.93-22.9Q56.95-24.12 58.39-24.8 59.83-25.49 61.52-25.49L61.52-25.49 62.28-25.49Q63.79-25.49 65.13-24.91 66.47-24.34 67.48-23.34 68.48-22.34 69.05-21 69.62-19.65 69.62-18.14L69.62-18.14 69.62-6.86ZM66.62-6.69L66.62-18.31Q66.62-19.21 66.28-20.01 65.94-20.8 65.35-21.39 64.77-21.97 63.97-22.31 63.18-22.66 62.28-22.66L62.28-22.66 60.27-22.66Q59.37-22.66 58.58-22.31 57.78-21.97 57.2-21.39 56.61-20.8 56.27-20.01 55.93-19.21 55.93-18.31L55.93-18.31 55.93-6.69Q55.93-5.79 56.27-4.99 56.61-4.2 57.2-3.61 57.78-3.03 58.58-2.69 59.37-2.34 60.27-2.34L60.27-2.34 62.28-2.34Q63.18-2.34 63.97-2.69 64.77-3.03 65.35-3.61 65.94-4.2 66.28-4.99 66.62-5.79 66.62-6.69L66.62-6.69ZM79.88-31.01L76.38-31.01 76.38-35.01 79.88-35.01 79.88-31.01ZM79.63 0L76.63 0 76.63-25 79.63-25 79.63 0ZM98.48 0L95.74 0Q94.37 0 93.17-0.51 91.96-1.03 91.07-1.93 90.18-2.83 89.65-4.03 89.13-5.22 89.13-6.59L89.13-6.59 89.13-22.14 84.63-22.14 84.63-25 89.13-25 89.13-31.01 92.13-31.49 92.13-25 98.48-25 98.48-22.14 92.13-22.14 92.13-6.45Q92.13-5.69 92.41-5.04 92.69-4.39 93.18-3.91 93.67-3.42 94.33-3.14 94.99-2.86 95.74-2.86L95.74-2.86 98.48-2.86 98.48 0ZM124.69-8.59L124.69-8.59Q124.69-6.81 124.02-5.25 123.35-3.69 122.18-2.51 121.01-1.34 119.43-0.67 117.86 0 116.08 0L116.08 0 104.99 0 104.99-35.01 116.08-35.01Q117.86-35.01 119.43-34.34 121.01-33.67 122.18-32.5 123.35-31.32 124.02-29.75 124.69-28.17 124.69-26.39L124.69-26.39 124.69-26.05Q124.69-24.8 124.36-23.67 124.04-22.53 123.43-21.56 122.81-20.58 121.98-19.79 121.15-18.99 120.13-18.46L120.13-18.46Q121.15-17.92 121.98-17.13 122.81-16.33 123.43-15.34 124.04-14.36 124.36-13.22 124.69-12.08 124.69-10.84L124.69-10.84 124.69-8.59ZM121.55-8.59L121.55-11.35Q121.55-12.52 121.11-13.54 120.67-14.55 119.9-15.31 119.13-16.06 118.11-16.5 117.1-16.94 115.93-16.94L115.93-16.94 108.14-16.94 108.14-3 115.93-3Q117.1-3 118.11-3.44 119.13-3.88 119.9-4.64 120.67-5.4 121.11-6.41 121.55-7.42 121.55-8.59L121.55-8.59ZM121.55-25.56L121.55-26.39Q121.55-27.56 121.11-28.58 120.67-29.59 119.9-30.36 119.13-31.13 118.11-31.57 117.1-32.01 115.93-32.01L115.93-32.01 108.14-32.01 108.14-19.95 115.93-19.95Q117.1-19.95 118.11-20.39 119.13-20.83 119.9-21.59 120.67-22.36 121.11-23.38 121.55-24.39 121.55-25.56L121.55-25.56ZM146.4-6.86L146.4-6.86Q146.4-5.35 145.82-4 145.25-2.66 144.25-1.66 143.25-0.66 141.9-0.09 140.56 0.49 139.05 0.49L139.05 0.49 137.05 0.49Q135.53 0.49 134.19-0.09 132.85-0.66 131.85-1.66 130.84-2.66 130.27-4 129.7-5.35 129.7-6.86L129.7-6.86 129.7-18.14Q129.7-19.65 130.27-21 130.84-22.34 131.85-23.34 132.85-24.34 134.19-24.91 135.53-25.49 137.05-25.49L137.05-25.49 139.05-25.49Q140.56-25.49 141.9-24.91 143.25-24.34 144.25-23.34 145.25-22.34 145.82-21 146.4-19.65 146.4-18.14L146.4-18.14 146.4-6.86ZM143.39-6.69L143.39-18.31Q143.39-19.21 143.05-20.01 142.71-20.8 142.12-21.39 141.54-21.97 140.74-22.31 139.95-22.66 139.05-22.66L139.05-22.66 137.05-22.66Q136.14-22.66 135.35-22.31 134.56-21.97 133.97-21.39 133.38-20.8 133.04-20.01 132.7-19.21 132.7-18.31L132.7-18.31 132.7-6.69Q132.7-5.79 133.04-4.99 133.38-4.2 133.97-3.61 134.56-3.03 135.35-2.69 136.14-2.34 137.05-2.34L137.05-2.34 139.05-2.34Q139.95-2.34 140.74-2.69 141.54-3.03 142.12-3.61 142.71-4.2 143.05-4.99 143.39-5.79 143.39-6.69L143.39-6.69ZM169.1-6.86L169.1-6.86Q169.1-5.35 168.52-4 167.95-2.66 166.95-1.66 165.95-0.66 164.61-0.09 163.26 0.49 161.75 0.49L161.75 0.49 159.75 0.49Q158.23 0.49 156.89-0.09 155.55-0.66 154.55-1.66 153.55-2.66 152.97-4 152.4-5.35 152.4-6.86L152.4-6.86 152.4-18.14Q152.4-19.65 152.97-21 153.55-22.34 154.55-23.34 155.55-24.34 156.89-24.91 158.23-25.49 159.75-25.49L159.75-25.49 161.75-25.49Q163.26-25.49 164.61-24.91 165.95-24.34 166.95-23.34 167.95-22.34 168.52-21 169.1-19.65 169.1-18.14L169.1-18.14 169.1-6.86ZM166.1-6.69L166.1-18.31Q166.1-19.21 165.75-20.01 165.41-20.8 164.83-21.39 164.24-21.97 163.45-22.31 162.65-22.66 161.75-22.66L161.75-22.66 159.75-22.66Q158.84-22.66 158.05-22.31 157.26-21.97 156.67-21.39 156.09-20.8 155.74-20.01 155.4-19.21 155.4-18.31L155.4-18.31 155.4-6.69Q155.4-5.79 155.74-4.99 156.09-4.2 156.67-3.61 157.26-3.03 158.05-2.69 158.84-2.34 159.75-2.34L159.75-2.34 161.75-2.34Q162.65-2.34 163.45-2.69 164.24-3.03 164.83-3.61 165.41-4.2 165.75-4.99 166.1-5.79 166.1-6.69L166.1-6.69ZM193.8 0L189.9 0 179.69-12.5 189.9-25 193.8-25 183.35-12.5 193.8 0ZM179.11 0L176.1 0 176.1-35.01 179.11-35.01 179.11 0Z" opacity="1" transform="matrix(1,0,0,1,0,0)" fill="#000000" class="wordmark-text-0" data-fill-palette-color="primary" id="text-0"></path></svg></g></svg></g></svg></g></svg></g><g transform="matrix(1,0,0,1,146.13835034176205,0)"><svg viewBox="0 0 103.24329931647588 103.24329931647587" height="103.24329931647587" width="103.24329931647588"><g><svg></svg></g><g id="icon-0"><svg viewBox="0 0 103.24329931647588 103.24329931647587" height="103.24329931647587" width="103.24329931647588"><g><path transform="scale(1.03243,1.03243)" d="M30 100c-16.569 0-30-13.431-30-30v-40c0-16.569 13.431-30 30-30h40c16.569 0 30 13.431 30 30v40c0 16.569-13.431 30-30 30z" fill="#000000" fill-rule="nonzero" stroke="none" stroke-width="1" stroke-linecap="butt" stroke-linejoin="miter" stroke-miterlimit="10" stroke-dasharray="" stroke-dashoffset="0" font-family="none" font-weight="none" font-size="none" text-anchor="none" style="mix-blend-mode: normal" data-fill-palette-color="accent"></path></g><g transform="matrix(1,0,0,1,20.648659863295187,24.520283587663023)"><svg viewBox="0 0 61.94597958988551 54.20273214114982" height="54.20273214114982" width="61.94597958988551"><g><svg xmlns="http://www.w3.org/2000/svg" xmlns:xlink="http://www.w3.org/1999/xlink" version="1.1" x="0" y="0" viewBox="0 0 100 87.5" style="enable-background:new 0 0 100 87.5;" xml:space="preserve" width="61.94597958988551" height="54.20273214114982" class="icon-cg-0" data-fill-palette-color="quaternary" id="cg-0"><path d="M50 12.5C50 12.5 37.5 0 0 0v75c37.891 0 50 12.5 50 12.5S62.109 75 100 75V0C62.5 0 50 12.5 50 12.5zM12.5 12.5c15.888 1.33 25.635 5.005 31.25 7.983v50.342c-5.615-2.966-15.362-6.641-31.25-7.983V12.5zM87.5 62.842c-15.894 1.343-25.641 5.018-31.25 7.983V20.483c5.609-2.979 15.356-6.653 31.25-7.983V62.842z" fill="#ffffff" data-fill-palette-color="quaternary"></path></svg></g></svg></g></svg></g></svg></g><g></g></svg></g><defs></defs></svg><rect width="395.52" height="194.67096509423533" fill="none" stroke="none" visibility="hidden"></rect></g></svg></g></svg>