<svg version="1.2" xmlns="http://www.w3.org/2000/svg" viewBox="0 0 1500 738" width="1500" height="738">
	<title>logo-no-background-svg</title>
	<style>
		.s0 { fill: #000000 } 
		.s1 { fill: #ffffff } 
	</style>
	<g id="Layer">
		<g id="Layer">
			<g id="tight-bounds">
				<g id="Layer">
					<g id="Layer">
						<g id="Layer">
							<g id="Layer">
								<g id="Layer">
									<g id="textblocktransform">
										<g id="textblock">
											<g id="Layer">
												<g id="Layer">
													<g id="Layer">
														<g id="Layer">
														</g>
													</g>
												</g>
											</g>
										</g>
									</g>
								</g>
							</g>
							<g id="Layer">
								<g id="Layer">
									<g id="Layer">
										<g id="Layer">
										</g>
									</g>
									<g id="icon-0">
										<g id="Layer">
											<g id="Layer">
												<path id="Layer" class="s0" d="m455 191.2c0-64.7 52.5-117.2 117.2-117.2h356.4c64.8 0 117.2 52.5 117.2 117.2v355.9c0 64.8-52.4 117.2-117.2 117.2h-356.4c-64.7 0-117.2-52.4-117.2-117.2z"/>
											</g>
											<g id="Layer">
												<g id="Layer">
													<g id="Layer">
														<g id="cg-0">
															<path id="Layer" fill-rule="evenodd" class="s1" d="m927.7 214.2v265.7c-134.4 0-177.3 44.2-177.3 44.2 0 0-42.9-44.2-177.2-44.2v-265.7c132.9 0 177.2 44.3 177.2 44.3 0 0 44.3-44.3 177.3-44.3zm-310.2 222.6c56.3 4.7 90.9 17.8 110.8 28.3v-178.3c-19.9-10.6-54.5-23.6-110.8-28.3zm265.9-178.3c-56.4 4.7-90.9 17.7-110.8 28.2v178.4c19.9-10.5 54.4-23.6 110.8-28.3z"/>
														</g>
													</g>
												</g>
											</g>
										</g>
									</g>
								</g>
							</g>
							<g id="Layer">
							</g>
						</g>
					</g>
				</g>
			</g>
		</g>
	</g>
</svg>